<svg xmlns="http://www.w3.org/2000/svg" viewBox="0 0 512 512">
  <defs>
    <linearGradient id="gold" x1="0%" y1="0%" x2="100%" y2="100%">
      <stop offset="0%" stop-color="#FDE68A"/>
      <stop offset="45%" stop-color="#F5C13B"/>
      <stop offset="100%" stop-color="#B8860B"/>
    </linearGradient>
    <clipPath id="ball"><circle cx="256" cy="230" r="110"/></clipPath>
  </defs>
  <!-- Gold ring -->
  <rect width="512" height="512" rx="96" fill="url(#gold)"/>
  <!-- Deep navy inner tile -->
  <rect x="16" y="16" width="480" height="480" rx="84" fill="#0F172A"/>
  <!-- Golden football -->
  <circle cx="256" cy="230" r="110" fill="url(#gold)"/>
  <g clip-path="url(#ball)">
    <!-- stitch / relationship lines: centre "fact" stamp out to each spot -->
    <g stroke="#64748B" stroke-width="1.5" stroke-dasharray="4 3" stroke-linecap="round" stroke-opacity="0.6">
      <line x1="256" y1="250" x2="256" y2="180"/>
      <line x1="256" y1="250" x2="349" y2="214"/>
      <line x1="256" y1="250" x2="163" y2="214"/>
      <line x1="256" y1="250" x2="312" y2="323"/>
      <line x1="256" y1="250" x2="200" y2="323"/>
    </g>
    <polygon points="256,145 290,170 278,208 234,208 222,170" fill="#0F172A"/>
    <polygon points="366,185 380,220 350,244 322,228 326,192" fill="#0F172A"/>
    <polygon points="328,295 344,330 316,352 286,336 284,300" fill="#0F172A"/>
    <polygon points="184,295 168,330 196,352 226,336 228,300" fill="#0F172A"/>
    <polygon points="146,185 186,192 190,228 162,244 132,220" fill="#0F172A"/>
    <!-- centre "fact" stamp -->
    <circle cx="256" cy="250" r="7" fill="#0F172A"/>
  </g>
  <circle cx="256" cy="230" r="110" fill="none" stroke="#0F172A" stroke-width="6"/>
  <!-- Gold analytics bars -->
  <rect x="148" y="380" width="30" height="64" rx="6" fill="url(#gold)"/>
  <rect x="196" y="360" width="30" height="84" rx="6" fill="url(#gold)"/>
  <rect x="244" y="340" width="30" height="104" rx="6" fill="url(#gold)"/>
  <rect x="292" y="355" width="30" height="89" rx="6" fill="url(#gold)"/>
  <rect x="340" y="370" width="30" height="74" rx="6" fill="url(#gold)"/>
</svg>
