<svg xmlns="http://www.w3.org/2000/svg" viewBox="0 0 200 40">
  <defs>
    <linearGradient id="gold" x1="0%" y1="0%" x2="100%" y2="100%">
      <stop offset="0%" stop-color="#FDE68A"/>
      <stop offset="45%" stop-color="#F5C13B"/>
      <stop offset="100%" stop-color="#B8860B"/>
    </linearGradient>
    <clipPath id="ball"><circle cx="256" cy="230" r="110"/></clipPath>
  </defs>
  <svg x="0" y="0" width="40" height="40" viewBox="0 0 512 512">
    <circle cx="256" cy="256" r="256" fill="url(#gold)"/>
    <circle cx="256" cy="256" r="236" fill="#0F172A"/>
    <circle cx="256" cy="230" r="110" fill="url(#gold)"/>
    <g clip-path="url(#ball)">
      <polygon points="256,145 290,170 278,208 234,208 222,170" fill="#0F172A"/>
      <polygon points="366,185 380,220 350,244 322,228 326,192" fill="#0F172A"/>
      <polygon points="328,295 344,330 316,352 286,336 284,300" fill="#0F172A"/>
      <polygon points="184,295 168,330 196,352 226,336 228,300" fill="#0F172A"/>
      <polygon points="146,185 186,192 190,228 162,244 132,220" fill="#0F172A"/>
    </g>
    <circle cx="256" cy="230" r="110" fill="none" stroke="#0F172A" stroke-width="6"/>
    <rect x="148" y="380" width="30" height="64" rx="6" fill="url(#gold)"/>
    <rect x="196" y="360" width="30" height="84" rx="6" fill="url(#gold)"/>
    <rect x="244" y="340" width="30" height="104" rx="6" fill="url(#gold)"/>
    <rect x="292" y="355" width="30" height="89" rx="6" fill="url(#gold)"/>
    <rect x="340" y="370" width="30" height="74" rx="6" fill="url(#gold)"/>
  </svg>
  <line x1="48" y1="5" x2="48" y2="35" stroke="#9C6E08" stroke-width="1.5"/>
  <text x="56" y="16" font-family="Arial Black, Arial, sans-serif" font-weight="900" font-size="12" fill="#9C6E08" letter-spacing="-0.3">Premiership</text>
  <text x="57" y="28" font-family="Arial, Helvetica, sans-serif" font-weight="400" font-size="8.5" fill="#9C6E08" letter-spacing="3">ANALYTICS</text>
</svg>
